<?xml version="1.0" encoding="UTF-8" standalone="no"?>
<!DOCTYPE svg PUBLIC "-//W3C//DTD SVG 1.1//EN" "http://www.w3.org/Graphics/SVG/1.1/DTD/svg11.dtd">
<svg width="100%" height="100%" viewBox="0 0 128 128" version="1.1" xmlns="http://www.w3.org/2000/svg" xmlns:xlink="http://www.w3.org/1999/xlink" xml:space="preserve" style="fill-rule:evenodd;clip-rule:evenodd;stroke-linejoin:round;stroke-miterlimit:1.41421;">
    <g>
        <circle cx="64" cy="64" r="50" style="fill:rgb(104,33,122);"/>
        <g id="path3841" transform="matrix(0.591914,0,0,0.587192,-122.488,-225.066)">
            <path d="M318.556,483.165C321.809,483.165 324.275,482.45 325.955,481.021C327.635,479.591 328.475,477.482 328.475,474.695C328.475,471.943 327.635,469.852 325.955,468.422C324.275,466.957 321.809,466.224 318.556,466.224L307.137,466.224L307.137,483.165L318.556,483.165M319.253,518.174C323.399,518.174 326.509,517.298 328.582,515.547C330.69,513.795 331.745,511.151 331.745,507.612C331.745,504.145 330.708,501.554 328.635,499.838C326.562,498.087 323.435,497.212 319.253,497.211L307.137,497.211L307.137,518.174L319.253,518.174M338.446,489.384C342.878,490.671 346.309,493.048 348.74,496.515C351.17,499.981 352.385,504.235 352.385,509.274C352.385,516.994 349.776,522.748 344.558,526.537C339.34,530.326 331.405,532.22 320.754,532.22L286.497,532.22L286.497,452.178L317.484,452.178C328.6,452.178 336.641,453.858 341.609,457.217C346.613,460.577 349.115,465.956 349.115,473.354C349.115,477.25 348.204,480.574 346.381,483.326C344.558,486.042 341.913,488.062 338.446,489.384" style="fill:white;fill-rule:nonzero;"/>
        </g>
    </g>
</svg>
