<?xml version="1.0" encoding="UTF-8" standalone="no"?>
<!DOCTYPE svg PUBLIC "-//W3C//DTD SVG 1.1//EN" "http://www.w3.org/Graphics/SVG/1.1/DTD/svg11.dtd">
<svg width="100%" height="100%" viewBox="0 0 128 128" version="1.1" xmlns="http://www.w3.org/2000/svg" xmlns:xlink="http://www.w3.org/1999/xlink" xml:space="preserve" style="fill-rule:evenodd;clip-rule:evenodd;stroke-linejoin:round;stroke-miterlimit:1.41421;">
    <g>
        <circle cx="64" cy="64" r="50" style="fill:rgb(156,218,240);"/>
    </g>
    <g transform="matrix(0.373146,0,0,0.373294,36.246,35.59)">
        <path d="M135.289,114.997C127.395,114.783 121.365,115.517 116.21,117.691C114.745,118.309 112.409,118.325 112.17,120.161C112.975,121.005 113.1,122.265 113.74,123.303C114.971,125.295 117.049,127.964 118.903,129.364C120.929,130.893 123.017,132.529 125.189,133.853C129.052,136.209 133.365,137.554 137.085,139.914C139.277,141.305 141.455,143.057 143.594,144.627C144.651,145.403 145.362,146.61 146.736,147.096C146.736,147.022 146.736,146.947 146.736,146.872C146.014,145.953 145.828,144.689 145.165,143.729C144.193,142.757 143.22,141.784 142.247,140.811C139.394,137.024 135.772,133.698 131.922,130.935C128.852,128.731 121.98,125.754 120.699,122.181C120.624,122.106 120.55,122.031 120.474,121.956C122.651,121.711 125.2,120.923 127.209,120.385C130.584,119.48 133.6,119.714 137.085,118.814C138.656,118.365 140.227,117.915 141.799,117.467C141.799,117.167 141.799,116.869 141.799,116.569C140.037,114.761 138.781,112.369 136.86,110.733C131.834,106.453 126.348,102.177 120.699,98.611C117.566,96.634 113.694,95.349 110.374,93.673C109.257,93.109 107.295,92.816 106.557,91.877C104.813,89.653 103.863,86.835 102.518,84.245C99.7,78.819 96.933,72.894 94.437,67.186C92.734,63.293 91.622,59.454 89.499,55.962C79.307,39.205 68.336,29.091 51.341,19.149C47.725,17.035 43.371,16.2 38.77,15.109C36.302,14.96 33.832,14.81 31.363,14.66C29.856,14.03 28.288,12.187 26.874,11.293C21.244,7.736 6.803,0 2.633,10.171C0,16.591 6.568,22.856 8.917,26.108C10.566,28.391 12.677,30.949 13.855,33.516C14.63,35.202 14.764,36.894 15.427,38.679C17.059,43.075 18.478,47.858 20.589,51.922C21.656,53.978 22.832,56.144 24.181,57.982C25.008,59.11 26.425,59.607 26.649,61.35C25.263,63.289 25.184,66.3 24.405,68.757C20.897,79.818 22.22,93.567 27.323,101.754C28.889,104.267 32.577,109.657 37.648,107.59C42.084,105.783 41.093,100.184 42.362,95.244C42.649,94.124 42.473,93.301 43.035,92.551C43.035,92.625 43.035,92.7 43.035,92.775C44.382,95.469 45.729,98.162 47.076,100.855C50.066,105.671 55.373,110.704 59.87,114.1C62.202,115.861 64.038,118.906 67.053,119.936C67.053,119.861 67.053,119.787 67.053,119.711C66.977,119.711 66.903,119.711 66.828,119.711C66.244,118.8 65.33,118.423 64.584,117.691C62.827,115.969 60.874,113.828 59.421,111.855C55.331,106.302 51.716,100.224 48.423,93.897C46.85,90.877 45.483,87.544 44.157,84.47C43.646,83.284 43.652,81.492 42.587,80.878C41.135,83.131 38.996,84.952 37.873,87.612C36.077,91.864 35.845,97.05 35.18,102.427C34.786,102.568 34.961,102.471 34.73,102.651C31.604,101.897 30.505,98.679 29.344,95.918C26.405,88.936 25.859,77.692 28.445,69.655C29.114,67.576 32.138,61.026 30.914,59.106C30.33,57.189 28.402,56.08 27.323,54.615C25.988,52.805 24.655,50.421 23.731,48.33C21.326,42.886 20.203,36.774 17.671,31.272C16.461,28.641 14.414,25.979 12.733,23.64C10.872,21.049 8.788,19.141 7.346,16.007C6.833,14.894 6.136,13.111 6.897,11.967C7.139,11.194 7.48,10.872 8.244,10.62C9.546,9.616 13.172,10.954 14.528,11.518C18.128,13.013 21.132,14.437 24.181,16.456C25.645,17.427 27.125,19.304 28.894,19.823C29.567,19.823 30.241,19.823 30.914,19.823C34.074,20.55 37.614,20.049 40.566,20.945C45.784,22.531 50.46,24.998 54.707,27.68C67.645,35.849 78.223,47.478 85.459,61.35C86.623,63.583 87.127,65.715 88.152,68.084C90.221,72.861 92.827,77.777 94.885,82.449C96.939,87.11 98.941,91.815 101.844,95.693C103.371,97.732 109.266,98.826 111.945,99.958C113.823,100.752 116.9,101.579 118.679,102.651C122.077,104.701 125.369,107.141 128.556,109.386C130.149,110.508 135.045,112.969 135.289,114.997Z" style="fill-rule:nonzero;"/>
    </g>
</svg>
